<svg width="154" height="59" viewBox="0 0 154 59" fill="none" xmlns="http://www.w3.org/2000/svg">
<path d="M1.632 44L12.624 28.496L1.584 12.848H8.544L16.416 24.08L23.232 12.848H30.096L19.584 28.4L31.152 44H24.048L15.84 32.912L8.496 44H1.632ZM48.9405 44.672C47.2285 44.672 45.7725 44.304 44.5725 43.568C43.3725 42.832 42.4525 41.72 41.8125 40.232C41.1885 38.728 40.8765 36.848 40.8765 34.592H42.9405C42.9405 35.632 43.1805 36.52 43.6605 37.256C44.1405 37.992 44.7725 38.56 45.5565 38.96C46.3565 39.344 47.2125 39.536 48.1245 39.536C49.0685 39.536 49.9965 39.28 50.9085 38.768C51.8365 38.24 52.6045 37.448 53.2125 36.392C53.8205 35.32 54.1245 33.968 54.1245 32.336C54.1245 30.848 53.8685 29.568 53.3565 28.496C52.8445 27.408 52.1405 26.576 51.2445 26C50.3645 25.424 49.3565 25.136 48.2205 25.136C47.2605 25.136 46.3805 25.352 45.5805 25.784C44.7805 26.216 44.1405 26.848 43.6605 27.68C43.1805 28.496 42.9405 29.488 42.9405 30.656H40.8765C40.8765 28.208 41.2525 26.208 42.0045 24.656C42.7565 23.088 43.7645 21.928 45.0285 21.176C46.2925 20.424 47.6765 20.048 49.1805 20.048C51.0205 20.048 52.7485 20.536 54.3645 21.512C55.9965 22.488 57.3165 23.896 58.3245 25.736C59.3325 27.56 59.8365 29.76 59.8365 32.336C59.8365 34.928 59.3245 37.144 58.3005 38.984C57.2765 40.824 55.9325 42.232 54.2685 43.208C52.6205 44.184 50.8445 44.672 48.9405 44.672ZM37.2765 55.376V20.72H41.9325L42.9405 26.48V55.376H37.2765ZM75.2614 44.672C73.2774 44.672 71.4614 44.16 69.8134 43.136C68.1654 42.112 66.8454 40.68 65.8534 38.84C64.8614 36.984 64.3654 34.816 64.3654 32.336C64.3654 29.776 64.8534 27.576 65.8294 25.736C66.8214 23.896 68.1414 22.488 69.7894 21.512C71.4374 20.536 73.2614 20.048 75.2614 20.048C77.1174 20.048 78.7174 20.424 80.0614 21.176C81.4214 21.912 82.5094 22.92 83.3254 24.2C84.1574 25.464 84.7174 26.896 85.0054 28.496C85.2934 30.096 85.3094 31.744 85.0534 33.44H68.8774V30.368H81.0454L79.9414 31.088C79.9894 30.336 79.9494 29.576 79.8214 28.808C79.7094 28.04 79.4854 27.336 79.1494 26.696C78.8134 26.056 78.3334 25.544 77.7094 25.16C77.1014 24.76 76.3174 24.56 75.3574 24.56C74.2054 24.56 73.2294 24.848 72.4294 25.424C71.6294 26 71.0214 26.784 70.6054 27.776C70.1894 28.768 69.9814 29.888 69.9814 31.136V33.392C69.9814 34.704 70.1734 35.864 70.5574 36.872C70.9574 37.88 71.5414 38.672 72.3094 39.248C73.0934 39.824 74.0774 40.112 75.2614 40.112C76.3654 40.112 77.2934 39.856 78.0454 39.344C78.7974 38.832 79.2774 38.064 79.4854 37.04H85.1974C84.9574 38.544 84.3894 39.872 83.4934 41.024C82.6134 42.16 81.4694 43.056 80.0614 43.712C78.6534 44.352 77.0534 44.672 75.2614 44.672ZM92.0265 44V20.624H97.6905V44H92.0265ZM96.2985 33.776C96.2985 30.72 96.6425 28.192 97.3305 26.192C98.0185 24.192 98.9385 22.712 100.091 21.752C101.259 20.776 102.555 20.288 103.979 20.288C104.363 20.288 104.723 20.312 105.059 20.36C105.411 20.408 105.755 20.48 106.091 20.576L105.995 26.24C105.579 26.144 105.131 26.064 104.651 26C104.171 25.936 103.739 25.904 103.355 25.904C102.107 25.904 101.059 26.208 100.211 26.816C99.3785 27.408 98.7465 28.288 98.3145 29.456C97.8985 30.624 97.6905 32.064 97.6905 33.776H96.2985ZM118.742 44.672C117.366 44.672 116.102 44.416 114.95 43.904C113.814 43.392 112.902 42.608 112.214 41.552C111.542 40.496 111.206 39.152 111.206 37.52V14.528H116.87V37.328C116.87 39.248 117.782 40.208 119.606 40.208C120.166 40.208 120.726 40.144 121.286 40.016C121.846 39.888 122.486 39.696 123.206 39.44L124.022 43.424C123.126 43.776 122.254 44.072 121.406 44.312C120.558 44.552 119.67 44.672 118.742 44.672ZM107.942 24.464V20.72H123.206V24.464H107.942ZM138.496 44.672C136.256 44.672 134.328 44.368 132.712 43.76C131.112 43.136 129.88 42.248 129.016 41.096C128.152 39.928 127.712 38.528 127.696 36.896H132.928C132.976 38.048 133.432 38.888 134.296 39.416C135.16 39.944 136.336 40.208 137.824 40.208C138.64 40.208 139.36 40.088 139.984 39.848C140.624 39.608 141.12 39.28 141.472 38.864C141.824 38.448 142 37.984 142 37.472C142 36.816 141.76 36.304 141.28 35.936C140.816 35.552 140.064 35.2 139.024 34.88L133.936 33.056C132.112 32.4 130.712 31.536 129.736 30.464C128.76 29.392 128.272 28.112 128.272 26.624C128.272 24.656 129.16 23.072 130.936 21.872C132.728 20.656 135.12 20.048 138.112 20.048C141.088 20.048 143.384 20.704 145 22.016C146.632 23.312 147.472 24.96 147.52 26.96H142.192C142.112 26.192 141.744 25.584 141.088 25.136C140.432 24.688 139.44 24.464 138.112 24.464C136.912 24.464 135.968 24.712 135.28 25.208C134.608 25.688 134.272 26.256 134.272 26.912C134.272 28.016 135.216 28.848 137.104 29.408L142.624 31.472C144.416 32.08 145.808 32.864 146.8 33.824C147.792 34.784 148.288 36 148.288 37.472C148.288 38.704 147.872 39.872 147.04 40.976C146.224 42.064 145.08 42.952 143.608 43.64C142.136 44.328 140.432 44.672 138.496 44.672Z" fill="white"/>
<path opacity="0.2" d="M18.08 34L22.66 27.54L18.06 21.02H20.96L24.24 25.7L27.08 21.02H29.94L25.56 27.5L30.38 34H27.42L24 29.38L20.94 34H18.08Z" fill="#FF3D6B"/>
<path d="M19.29 34L23.54 27.99L19.23 21.87H20.06L24.03 27.44L27.84 21.87H28.76L24.42 27.99L28.63 34H27.78L23.91 28.57L20.16 34H19.29Z" fill="#FF3D6B"/>
<path opacity="0.2" d="M2.08002 34L6.66002 27.54L2.06002 21.02H4.96002L8.24002 25.7L11.08 21.02H13.94L9.56002 27.5L14.38 34H11.42L8.00002 29.38L4.94002 34H2.08002Z" fill="#4D42FF"/>
<path d="M3.29 34L7.54 27.99L3.23 21.87H4.06L8.03 27.44L11.84 21.87H12.76L8.42 27.99L12.63 34H11.78L7.91 28.57L4.16 34H3.29Z" fill="#4D42FF"/>
<path opacity="0.2" d="M10.08 25L14.66 18.54L10.06 12.02H12.96L16.24 16.7L19.08 12.02H21.94L17.56 18.5L22.38 25H19.42L16 20.38L12.94 25H10.08Z" fill="#FFA200"/>
<path d="M11.29 25L15.54 18.99L11.23 12.87H12.06L16.03 18.44L19.84 12.87H20.76L16.42 18.99L20.63 25H19.78L15.91 19.57L12.16 25H11.29Z" fill="#FFA200"/>
<path d="M11.29 43L15.54 36.99L11.23 30.87H12.06L16.03 36.44L19.84 30.87H20.76L16.42 36.99L20.63 43H19.78L15.91 37.57L12.16 43H11.29Z" fill="#52DC8E"/>
<path opacity="0.2" d="M10.08 43L14.66 36.54L10.06 30.02H12.96L16.24 34.7L19.08 30.02H21.94L17.56 36.5L22.38 43H19.42L16 38.38L12.94 43H10.08Z" fill="#52DC8E"/>
<path d="M1.632 44L12.624 28.496L1.584 12.848H8.544L16.416 24.08L23.232 12.848H30.096L19.584 28.4L31.152 44H24.048L15.84 32.912L8.496 44H1.632Z" fill="white"/>
</svg>
