<?xml version="1.0" standalone="no"?>
<!DOCTYPE svg PUBLIC "-//W3C//DTD SVG 20010904//EN"
 "http://www.w3.org/TR/2001/REC-SVG-20010904/DTD/svg10.dtd">
<svg version="1.0" xmlns="http://www.w3.org/2000/svg"
 width="944.000000pt" height="944.000000pt" viewBox="0 0 944.000000 944.000000"
 preserveAspectRatio="xMidYMid meet">
<metadata>
Created by potrace 1.14, written by Peter Selinger 2001-2017
</metadata>
<g transform="translate(0.000000,944.000000) scale(0.100000,-0.100000)"
fill="#000000" stroke="none">
<path d="M4015 7501 c-3 -5 -2 -12 3 -15 5 -3 9 1 9 9 0 17 -3 19 -12 6z"/>
<path d="M5375 7500 c-3 -5 -1 -10 4 -10 6 0 11 5 11 10 0 6 -2 10 -4 10 -3 0
-8 -4 -11 -10z"/>
<path d="M5307 7479 c7 -7 15 -10 18 -7 3 3 -2 9 -12 12 -14 6 -15 5 -6 -5z"/>
<path d="M5220 7446 c0 -2 8 -10 18 -17 15 -13 16 -12 3 4 -13 16 -21 21 -21
13z"/>
<path d="M5266 7438 c3 -5 10 -6 15 -3 13 9 11 12 -6 12 -8 0 -12 -4 -9 -9z"/>
<path d="M5490 7420 c0 -5 5 -10 11 -10 5 0 7 5 4 10 -3 6 -8 10 -11 10 -2 0
-4 -4 -4 -10z"/>
<path d="M5315 7402 c3 -18 0 -21 -24 -18 -32 3 -55 -10 -65 -39 -11 -34 -44
-67 -58 -59 -9 6 -9 3 1 -9 9 -11 10 -17 2 -17 -6 0 -11 -7 -11 -15 0 -8 -4
-15 -8 -15 -5 0 -14 -12 -20 -26 -7 -14 -17 -22 -22 -19 -6 4 -7 11 -4 17 4 7
2 8 -5 4 -9 -6 -9 -11 -1 -21 9 -11 5 -23 -17 -52 -15 -21 -31 -40 -36 -41 -4
-2 -5 -8 -1 -13 3 -5 1 -9 -4 -9 -5 0 -14 -12 -20 -26 -7 -14 -17 -22 -22 -19
-6 4 -10 3 -9 -2 5 -31 -2 -45 -22 -40 -16 4 -18 3 -9 -8 9 -10 7 -18 -8 -33
-11 -11 -18 -23 -14 -26 3 -3 0 -6 -6 -6 -7 0 -12 -6 -12 -13 0 -7 -10 -23
-22 -37 -13 -14 -29 -37 -37 -52 -8 -16 -18 -28 -23 -28 -4 0 -8 -7 -8 -15 0
-9 -10 -20 -22 -25 -13 -5 -18 -9 -11 -9 7 -1 -17 -43 -53 -93 -37 -51 -70
-92 -76 -90 -5 1 -7 -2 -3 -8 7 -12 -12 -40 -26 -40 -5 0 -9 7 -9 15 0 9 -7
18 -15 21 -8 4 -13 10 -10 14 3 4 -2 11 -11 14 -8 3 -13 10 -10 15 4 5 0 12
-6 14 -10 4 -9 8 2 17 13 10 13 11 -2 7 -20 -7 -43 17 -32 34 4 7 3 9 -4 5
-10 -6 -52 43 -52 61 0 5 -9 15 -19 23 -11 7 -18 17 -15 22 3 4 0 8 -7 8 -7 0
-9 3 -6 6 4 4 -1 14 -11 23 -23 21 -57 74 -54 84 1 4 -5 7 -14 7 -10 0 -14 5
-10 16 3 8 2 12 -4 9 -6 -3 -13 2 -17 12 -4 10 -15 27 -25 38 -10 10 -16 25
-13 33 2 7 0 10 -5 7 -5 -3 -17 10 -27 29 -9 19 -20 33 -25 30 -4 -3 -8 2 -8
10 0 9 -4 16 -9 16 -5 0 -14 13 -21 30 -7 16 -16 27 -21 24 -5 -3 -9 2 -9 11
0 8 -9 23 -20 32 -11 10 -20 23 -20 30 0 7 -3 13 -7 13 -5 1 -24 25 -43 55
-19 30 -38 55 -42 55 -5 0 -8 5 -8 11 0 5 5 7 12 3 7 -4 8 -3 4 5 -4 6 -11 9
-16 6 -4 -3 -10 0 -12 6 -2 7 -28 12 -58 13 -38 1 -54 6 -52 14 2 10 -3 10
-17 3 -16 -9 -18 -14 -8 -36 7 -14 15 -25 20 -25 4 0 7 -7 7 -16 0 -8 5 -12
10 -9 6 3 10 -1 10 -10 0 -8 9 -23 20 -32 11 -10 20 -22 20 -28 1 -5 14 -25
30 -44 16 -19 27 -38 24 -43 -3 -4 1 -8 9 -8 13 0 31 -33 28 -52 -1 -5 4 -7 9
-5 6 1 18 -11 28 -28 9 -16 24 -37 33 -47 9 -10 22 -31 30 -46 8 -15 21 -34
30 -42 9 -8 19 -25 23 -37 4 -13 12 -23 18 -23 5 0 8 -7 5 -14 -4 -10 -1 -13
7 -10 14 5 30 -22 21 -36 -3 -5 0 -12 6 -16 8 -5 10 -2 5 7 -4 8 2 2 14 -13
12 -15 21 -30 21 -33 -1 -3 9 -15 20 -26 17 -17 19 -23 8 -31 -11 -8 -11 -9 2
-5 12 4 33 -18 75 -80 33 -46 64 -92 69 -101 6 -10 14 -20 19 -23 5 -4 6 -14
3 -22 -4 -11 -1 -14 8 -11 8 4 20 -6 29 -25 20 -38 20 -41 -1 -42 -11 0 -13
-3 -6 -6 9 -3 4 -16 -15 -41 -15 -20 -31 -40 -37 -44 -5 -4 -6 -8 -2 -8 5 0 2
-7 -6 -15 -8 -8 -25 -31 -37 -50 -19 -31 -24 -34 -39 -23 -13 10 -14 10 -4 -2
15 -16 -2 -54 -19 -44 -7 4 -8 3 -4 -4 7 -12 -13 -52 -27 -52 -4 0 -6 4 -3 9
3 5 -1 12 -10 15 -9 4 -14 9 -11 12 3 3 -5 17 -19 31 -13 13 -24 28 -24 32 0
4 -11 21 -25 37 -14 16 -60 79 -101 139 -42 61 -93 135 -115 165 -22 30 -48
66 -57 80 -69 103 -298 426 -304 428 -4 2 -8 8 -8 13 0 6 -17 33 -38 62 -21
29 -71 98 -111 154 -39 55 -77 103 -84 105 -10 3 -1087 3 -1095 -1 -4 -2 18
-40 33 -59 12 -14 105 -144 145 -202 32 -46 251 -357 257 -365 11 -13 86 -120
148 -210 27 -38 52 -71 57 -73 4 -2 8 -7 8 -12 0 -7 156 -232 267 -385 165
-226 362 -518 357 -527 -5 -7 -2 -8 5 -4 8 5 14 0 18 -13 3 -12 9 -21 13 -21
4 0 11 -7 14 -16 3 -8 2 -12 -4 -9 -6 3 -10 0 -10 -8 0 -7 -9 -23 -20 -35 -12
-12 -17 -22 -13 -22 4 0 3 -4 -3 -8 -10 -7 -70 -92 -105 -150 -9 -15 -22 -26
-29 -24 -6 1 -9 -2 -6 -7 10 -15 -5 -43 -20 -37 -8 3 -11 0 -8 -9 3 -7 -4 -23
-15 -34 -12 -12 -19 -21 -15 -21 3 0 -7 -16 -22 -35 -28 -37 -44 -44 -44 -20
0 9 -7 18 -15 21 -8 4 -13 10 -10 14 3 4 -2 11 -11 14 -8 3 -13 10 -10 15 4 5
0 12 -6 14 -10 4 -10 8 1 15 8 6 9 12 3 16 -6 3 -12 1 -14 -5 -2 -7 -18 8 -36
32 -17 24 -36 50 -42 57 -6 6 -7 12 -3 12 4 0 0 5 -9 11 -10 5 -18 16 -18 23
0 8 -7 16 -15 20 -8 3 -15 12 -15 20 0 8 -3 16 -7 18 -9 3 -113 146 -113 154
0 3 -11 17 -25 31 -23 26 -24 28 -7 47 15 19 15 19 0 8 -14 -11 -20 -10 -35 6
-20 21 -40 49 -50 72 -4 8 -9 17 -13 20 -14 12 -71 90 -65 90 3 0 -4 10 -15
23 -12 12 -29 34 -38 50 -9 15 -20 27 -24 27 -4 0 -8 5 -8 11 0 23 -28 34 -91
34 -64 1 -65 0 -55 -22 6 -13 14 -23 19 -23 4 0 7 -7 7 -16 0 -8 5 -12 10 -9
6 3 10 -1 10 -10 0 -8 9 -23 20 -32 11 -10 20 -22 20 -29 0 -6 9 -19 20 -29
11 -10 20 -24 20 -32 0 -7 4 -13 8 -13 4 0 19 -18 32 -40 14 -22 28 -40 33
-40 4 0 7 -6 7 -14 0 -8 10 -22 22 -30 12 -9 17 -16 10 -16 -7 0 -6 -7 6 -18
32 -34 57 -67 71 -95 8 -15 18 -27 23 -27 4 0 8 -7 8 -15 0 -8 3 -15 8 -15 4
0 23 -25 41 -55 19 -30 39 -55 44 -55 5 0 3 -8 -4 -17 -10 -12 -10 -15 -1 -9
13 8 51 -29 52 -51 0 -6 3 -13 8 -15 17 -7 82 -110 76 -120 -5 -7 -2 -8 6 -3
10 6 12 4 7 -8 -4 -11 -2 -14 9 -10 8 3 14 -1 14 -11 0 -9 5 -16 11 -16 6 0 9
-9 6 -19 -3 -13 -1 -18 8 -14 8 3 20 -8 30 -26 15 -30 15 -32 -20 -87 -19 -30
-40 -52 -45 -49 -6 4 -9 3 -8 -2 5 -20 -15 -54 -28 -49 -9 3 -12 1 -9 -5 4 -5
-5 -25 -19 -44 -14 -18 -26 -36 -26 -39 0 -12 -34 -45 -42 -40 -4 3 -5 -1 -2
-9 3 -8 -3 -21 -13 -28 -10 -8 -19 -20 -21 -27 -4 -20 -63 -97 -73 -95 -4 2
-6 -4 -3 -12 4 -9 0 -15 -9 -15 -8 0 -21 -8 -28 -17 -13 -16 -12 -17 4 -4 27
21 20 5 -20 -49 -26 -35 -40 -46 -46 -37 -5 7 -6 4 -2 -10 3 -12 1 -24 -5 -28
-6 -4 -22 -24 -36 -46 -14 -23 -29 -37 -36 -33 -7 4 -8 3 -4 -4 11 -18 -4 -37
-16 -21 -7 11 -9 11 -7 -1 4 -36 -1 -52 -15 -47 -11 4 -13 1 -9 -10 4 -11 2
-14 -5 -9 -8 5 -10 2 -6 -8 4 -11 0 -16 -11 -16 -9 0 -13 -5 -10 -11 4 -5 -5
-21 -20 -35 -14 -13 -23 -24 -19 -24 4 0 0 -8 -9 -18 -10 -10 -14 -22 -10 -25
3 -4 2 -7 -4 -7 -6 0 -14 -7 -17 -15 -5 -13 3 -16 42 -14 27 1 53 0 58 -3 5
-4 20 0 34 8 14 7 21 13 17 14 -8 0 1 13 35 50 9 10 14 21 11 24 -4 3 0 6 7 6
7 0 11 3 7 6 -10 10 22 36 35 28 10 -5 10 -4 1 6 -12 13 4 42 50 94 9 11 17
26 17 33 0 16 12 17 29 1 10 -10 10 -8 0 10 -12 20 -12 24 4 33 9 6 17 15 17
22 0 7 11 25 25 40 14 15 22 27 18 27 -4 0 0 5 10 11 9 6 14 15 11 21 -5 7 -1
9 9 5 9 -3 19 -1 23 5 4 7 3 8 -4 4 -17 -10 -15 6 4 32 8 12 20 19 26 16 7 -5
8 -2 4 5 -5 7 -1 20 7 29 7 9 17 25 20 35 4 9 13 17 21 17 9 0 13 6 10 14 -3
7 2 16 11 20 9 3 13 10 10 16 -3 6 1 13 9 16 9 3 16 11 16 16 0 18 41 68 51
63 5 -4 6 0 3 8 -3 8 1 21 8 28 7 8 21 27 31 42 10 15 22 25 27 22 4 -3 6 4 3
15 -10 36 12 21 68 -48 5 -7 7 -17 3 -24 -5 -7 -3 -8 6 -3 10 6 12 4 7 -9 -4
-9 -3 -15 2 -12 5 3 15 -2 22 -11 12 -15 12 -16 -4 -10 -11 4 -16 3 -12 -3 3
-6 12 -10 18 -10 15 0 36 -24 56 -63 8 -15 18 -27 23 -27 4 0 8 -5 8 -10 0 -6
5 -16 10 -23 51 -60 55 -67 51 -90 0 -4 4 -6 11 -5 7 2 17 -7 23 -19 5 -13 13
-23 17 -23 13 0 9 -28 -4 -34 -7 -3 -3 -3 9 0 23 5 49 -26 35 -41 -4 -5 -1 -5
6 -1 19 11 26 -22 11 -52 -14 -27 -75 -117 -94 -139 -11 -12 -154 -215 -170
-241 -5 -9 -14 -21 -20 -28 -5 -6 -16 -20 -23 -30 -30 -45 -332 -470 -342
-481 -5 -7 -10 -15 -10 -17 0 -3 -7 -14 -15 -23 -14 -17 -49 -67 -205 -289
-41 -59 -81 -113 -87 -120 -7 -7 -13 -15 -13 -19 0 -3 -5 -11 -10 -18 -6 -7
-33 -43 -60 -82 -27 -38 -53 -74 -58 -80 -4 -5 -28 -39 -52 -75 -24 -36 -48
-69 -52 -75 -46 -59 -138 -191 -138 -199 0 -3 10 -6 23 -6 12 0 29 0 37 0 8
-1 34 1 58 2 23 2 42 0 42 -4 0 -4 6 -5 14 -2 21 8 106 10 106 2 0 -4 6 -5 14
-2 21 8 106 10 106 2 0 -4 6 -5 14 -2 21 8 106 10 106 2 0 -4 6 -5 14 -2 21 8
106 10 106 2 0 -4 6 -5 14 -2 18 7 106 10 106 4 0 -6 129 -3 146 4 8 3 16 1
19 -3 3 -5 21 -5 40 -1 19 4 37 4 40 0 4 -7 67 2 85 12 15 8 68 84 76 111 4 9
10 17 15 17 6 0 12 7 16 16 5 13 150 238 203 314 6 8 89 134 186 280 96 146
182 273 190 283 8 9 14 19 14 21 0 8 184 281 191 284 5 2 9 10 9 18 0 8 4 14
9 14 5 0 11 8 13 17 2 12 18 -3 51 -50 26 -37 47 -72 47 -76 0 -5 7 -11 15
-15 8 -3 15 -12 15 -21 0 -8 4 -15 9 -15 16 0 22 -32 9 -49 -10 -13 -10 -14 2
-3 8 6 17 12 21 12 14 0 19 -33 7 -49 -12 -14 -11 -15 5 -2 25 20 30 8 7 -17
-11 -12 -20 -25 -20 -29 0 -4 -13 -21 -28 -38 -16 -16 -29 -33 -30 -38 -1 -4
-9 -18 -18 -32 -14 -21 -19 -23 -33 -13 -14 11 -14 11 -3 -4 12 -14 10 -21 -9
-47 -19 -26 -25 -29 -38 -18 -14 11 -14 10 -2 -6 9 -11 11 -21 5 -25 -5 -4
-25 -31 -43 -59 -18 -30 -38 -50 -44 -46 -6 3 -7 1 -3 -6 4 -6 1 -17 -6 -25
-14 -14 -17 -19 -69 -99 -18 -27 -38 -51 -45 -54 -8 -3 -11 -9 -8 -14 3 -5 -2
-12 -10 -15 -9 -3 -14 -10 -11 -14 2 -4 -4 -15 -15 -25 -11 -10 -20 -24 -20
-32 0 -7 -5 -13 -11 -13 -5 0 -7 5 -3 12 4 7 3 8 -4 4 -6 -4 -9 -13 -6 -20 3
-7 -3 -22 -13 -31 -10 -10 -18 -23 -18 -28 0 -5 -7 -14 -16 -20 -9 -7 -17 -16
-18 -22 -2 -5 -8 -9 -14 -7 -7 2 -9 0 -5 -3 10 -10 -11 -47 -22 -40 -6 3 -7 0
-5 -7 3 -8 -8 -29 -25 -48 -16 -18 -30 -40 -30 -47 0 -8 -4 -11 -10 -8 -5 3
-10 0 -10 -8 0 -14 44 -29 55 -19 2 3 27 5 53 5 30 -1 49 4 49 11 0 21 56 96
72 96 12 0 13 2 3 8 -9 7 -7 15 12 35 13 14 22 27 20 29 -2 2 10 19 26 38 17
19 30 41 30 48 0 15 12 15 29 0 11 -11 11 -9 0 9 -12 19 -11 24 9 41 12 10 19
22 15 26 -3 3 -2 6 4 6 6 0 13 9 16 20 3 11 16 24 29 29 12 6 17 10 10 10 -9
1 -7 10 8 31 12 17 26 27 32 24 7 -5 8 -2 4 5 -5 7 0 19 10 27 11 9 12 13 4 9
-8 -4 -4 3 10 15 14 12 18 18 10 14 -13 -7 -13 -5 -1 9 7 9 18 14 25 10 6 -3
8 -3 4 2 -9 10 19 65 33 65 6 0 7 5 4 10 -3 6 -1 10 4 10 6 0 11 7 11 15 0 8
4 15 10 15 5 0 16 15 25 33 8 18 28 47 44 64 16 18 26 34 23 37 -3 3 2 6 11 6
9 0 19 5 23 12 4 7 3 8 -4 4 -16 -9 -15 5 1 26 12 15 14 15 26 -4 11 -17 10
-22 -1 -30 -9 -6 -6 -7 10 -3 15 4 22 2 22 -8 0 -8 9 -22 20 -32 11 -10 20
-22 20 -26 0 -5 9 -20 21 -33 12 -13 20 -26 18 -28 -3 -3 21 -35 49 -63 6 -8
12 -18 12 -24 0 -6 3 -11 8 -11 4 0 18 -18 32 -40 13 -22 28 -40 32 -40 4 0 8
-7 8 -16 0 -9 -5 -12 -12 -8 -7 4 -8 3 -4 -4 4 -6 13 -9 21 -5 9 3 15 -1 15
-11 0 -9 5 -16 10 -16 6 0 10 -5 10 -11 0 -7 8 -18 18 -26 10 -9 11 -12 2 -7
-8 4 -5 -3 8 -15 12 -12 19 -27 16 -33 -4 -6 -3 -8 4 -4 6 3 21 -8 33 -26 13
-17 16 -28 8 -23 -7 5 1 -6 19 -24 29 -30 36 -43 33 -63 0 -5 5 -7 12 -5 6 1
11 -6 11 -15 -1 -10 3 -16 9 -15 6 1 21 -16 33 -38 13 -22 24 -36 24 -31 0 12
50 -62 50 -74 0 -6 5 -10 10 -10 6 0 10 -6 10 -14 0 -11 18 -15 75 -18 77 -3
86 0 60 22 -8 7 -15 18 -15 24 0 6 -11 24 -25 40 -14 17 -23 36 -21 43 3 7 1
12 -5 10 -6 -1 -16 7 -22 18 -7 11 -19 27 -28 35 -9 8 -19 25 -23 38 -4 12
-12 22 -18 22 -5 0 -7 8 -4 17 4 10 4 14 0 10 -8 -8 -41 28 -49 54 -4 11 -11
19 -16 19 -5 0 -9 6 -9 14 0 8 -4 16 -8 18 -5 2 -23 26 -42 53 -18 28 -36 52
-39 55 -15 13 -71 100 -71 110 0 6 -4 9 -8 6 -4 -2 -18 15 -31 40 -13 24 -28
44 -33 44 -5 0 -7 4 -4 9 3 5 -1 11 -9 15 -8 3 -15 12 -15 20 0 8 -4 16 -8 18
-5 2 -23 26 -42 53 -18 28 -37 52 -41 55 -4 3 -9 12 -11 20 -2 8 -11 21 -20
28 -10 7 -18 20 -18 28 0 8 -5 14 -11 14 -5 0 2 22 17 50 15 27 31 50 36 50 5
0 6 -5 2 -12 -4 -6 -3 -8 4 -4 6 3 9 15 7 26 -2 11 0 20 5 20 4 0 21 20 37 45
15 25 32 45 36 45 5 0 5 5 2 10 -3 6 -2 10 4 10 5 0 13 9 16 21 7 20 7 20 26
-3 10 -13 23 -28 28 -34 5 -6 74 -99 153 -205 78 -107 146 -195 150 -197 5 -2
8 -10 8 -18 0 -8 4 -14 8 -14 4 0 21 -20 36 -45 16 -25 32 -45 36 -45 4 0 12
-10 18 -22 5 -13 19 -34 31 -48 11 -14 70 -92 131 -175 61 -82 117 -158 125
-168 8 -9 15 -22 15 -27 0 -6 4 -10 8 -10 4 0 15 -12 24 -27 9 -16 26 -39 37
-53 11 -14 62 -81 113 -150 l93 -125 63 -1 c34 -1 69 -5 77 -8 8 -3 15 -2 15
2 0 8 85 6 106 -2 8 -3 14 -2 14 2 0 8 85 6 106 -2 8 -3 14 -2 14 3 0 4 19 5
43 1 23 -3 57 -3 75 1 18 4 34 3 37 -1 3 -4 21 -4 40 0 19 4 37 4 40 0 3 -4
21 -4 40 0 19 4 37 4 40 0 3 -4 21 -4 40 0 19 4 37 4 40 0 3 -4 21 -4 40 0 19
4 37 4 40 0 3 -4 21 -4 40 0 19 4 37 4 40 0 3 -4 21 -4 40 0 20 4 38 4 41 -1
3 -5 10 -7 15 -4 5 4 27 7 49 7 27 0 38 4 33 12 -10 16 -146 200 -153 206 -3
3 -17 21 -30 40 -14 19 -90 123 -170 230 -80 107 -147 200 -149 205 -2 6 -7
12 -11 15 -3 3 -78 102 -165 220 -88 118 -163 220 -167 225 -10 12 -217 292
-238 322 -8 12 -97 132 -197 267 -101 134 -183 251 -183 259 0 7 9 23 20 35
11 12 20 24 20 28 0 3 9 19 21 35 18 25 23 28 37 17 14 -10 15 -10 5 1 -15 18
11 75 30 65 7 -4 9 -4 5 1 -10 11 11 47 22 40 6 -3 7 0 4 8 -3 8 3 23 13 33
10 11 25 31 32 46 7 14 27 41 44 60 17 18 29 33 27 33 -1 0 6 14 17 32 l19 32
35 -51 c18 -28 39 -58 44 -66 10 -17 20 -30 43 -57 7 -8 10 -15 7 -15 -3 0 3
-8 13 -18 32 -35 52 -62 52 -72 0 -6 4 -10 10 -10 5 0 12 -11 16 -24 3 -14 12
-27 20 -30 8 -3 14 -10 14 -16 0 -6 -5 -8 -12 -4 -7 4 -8 3 -4 -5 4 -6 11 -9
15 -6 10 5 94 -113 94 -132 0 -7 4 -10 8 -7 4 2 18 -10 30 -28 13 -17 16 -28
8 -23 -7 5 1 -6 19 -24 29 -30 36 -43 33 -64 0 -4 5 -6 11 -5 7 2 12 -5 12
-14 -1 -10 2 -15 7 -13 4 3 16 -7 26 -22 10 -15 22 -31 28 -35 5 -4 6 -8 2 -8
-5 0 -1 -7 7 -16 9 -8 14 -20 10 -25 -3 -5 -1 -8 4 -7 6 2 9 1 9 -2 -1 -3 11
-19 27 -35 25 -25 40 -31 94 -35 45 -4 66 -2 74 7 6 8 8 16 4 20 -3 3 -6 0 -6
-7 0 -16 -37 25 -45 51 -4 11 -10 19 -15 19 -5 0 -11 8 -15 19 -5 16 -16 32
-55 79 -6 6 -8 12 -5 12 7 0 -12 24 -37 48 -10 9 -18 22 -18 28 0 6 -7 17 -15
24 -9 7 -13 15 -10 18 3 3 -4 12 -15 19 -11 8 -18 19 -15 24 4 5 2 9 -3 9 -6
0 -25 23 -43 51 -18 28 -37 56 -43 63 -23 25 -76 105 -76 115 0 6 -4 11 -9 11
-6 0 -20 18 -32 40 -13 22 -27 40 -31 40 -5 0 -7 4 -4 9 3 5 -1 11 -9 15 -8 3
-15 10 -15 16 0 6 -7 18 -16 27 -8 9 -13 22 -10 29 3 7 0 11 -7 9 -17 -6 -58
61 -51 83 4 12 3 13 -3 4 -7 -9 -15 -4 -31 18 -12 16 -22 34 -22 40 0 5 -5 10
-11 10 -6 0 -9 6 -6 13 2 6 9 11 15 10 6 -2 9 3 6 10 -2 7 5 22 16 34 11 12
20 26 20 30 0 5 9 16 20 26 11 9 20 24 20 33 0 10 5 14 16 10 8 -3 12 -2 9 4
-8 13 25 61 38 53 5 -3 7 -1 3 5 -5 9 58 111 99 159 5 7 15 19 22 27 7 8 26
37 44 66 17 28 37 49 43 47 7 -3 12 4 12 16 -1 12 4 22 11 22 6 0 15 4 20 9 5
5 3 6 -4 2 -17 -10 -16 0 3 30 10 14 23 23 29 20 8 -3 11 2 8 15 -3 10 -1 19
5 19 6 0 18 15 27 34 9 19 25 42 36 52 10 9 19 21 19 25 0 5 8 18 17 29 14 16
20 17 32 7 14 -10 14 -10 3 5 -17 21 -6 42 17 33 13 -5 13 -4 4 6 -10 10 -7
20 14 48 15 20 33 40 40 44 7 5 11 12 8 18 -4 5 1 12 10 15 28 11 -3 22 -47
18 -35 -4 -39 -2 -34 13 5 16 5 16 -8 0 -8 -10 -23 -17 -33 -15 -13 3 -32 -17
-71 -77 -29 -44 -60 -87 -70 -95 -9 -9 -18 -22 -20 -29 -6 -27 -65 -100 -75
-94 -6 4 -8 0 -4 -10 3 -10 2 -17 -4 -17 -6 0 -7 -5 -4 -10 3 -6 -5 -14 -19
-20 -14 -5 -26 -12 -26 -15 0 -4 5 -3 10 0 18 11 11 -3 -32 -65 -24 -34 -47
-68 -53 -78 -11 -17 -20 -30 -45 -59 -8 -10 -15 -20 -15 -23 -1 -8 -58 -93
-77 -114 -10 -11 -18 -23 -18 -27 0 -5 -10 -18 -22 -30 -13 -12 -16 -19 -8
-15 8 4 4 -2 -9 -13 -13 -12 -20 -21 -17 -21 4 0 -2 -10 -14 -22 -11 -12 -20
-28 -20 -35 0 -7 -7 -13 -15 -13 -8 0 -15 5 -15 11 0 6 -6 16 -12 23 -7 8 -20
24 -28 36 -8 13 -25 35 -37 50 -24 29 -30 45 -13 35 6 -3 10 -1 10 5 0 7 -6
10 -14 7 -17 -7 -50 39 -40 55 4 6 3 8 -3 5 -11 -7 -45 28 -36 37 4 3 0 6 -7
6 -7 0 -10 3 -7 6 4 4 -1 14 -11 23 -32 29 -64 82 -58 96 3 9 0 12 -9 8 -24
-8 -28 23 -9 56 10 17 22 31 26 31 4 0 8 4 8 9 0 5 25 46 55 92 73 111 77 118
98 144 9 13 17 28 17 34 0 6 4 11 9 11 5 0 13 9 16 20 3 11 12 26 19 33 7 7
82 116 167 242 85 127 158 235 162 240 25 33 147 219 147 225 0 5 4 10 8 12 7
3 134 188 450 658 39 58 67 107 62 110 -10 6 -1077 6 -1083 0 -9 -10 -217
-352 -217 -358 0 -3 -10 -19 -23 -36 -13 -17 -27 -38 -30 -46 -4 -8 -17 -31
-30 -50 -23 -37 -114 -187 -132 -218 -77 -133 -293 -480 -305 -489 -8 -7 -11
-13 -6 -13 6 0 1 -7 -10 -16 -10 -8 -13 -12 -5 -8 8 4 0 -14 -18 -40 -18 -25
-36 -44 -41 -41 -4 3 -6 -5 -3 -17 4 -18 -2 -15 -31 17 -19 22 -35 44 -36 48
0 5 -9 20 -20 34 -11 14 -17 30 -13 36 3 5 1 7 -4 4 -6 -4 -16 0 -23 8 -7 8
-9 15 -6 15 4 0 -4 12 -18 27 -18 19 -22 31 -15 39 7 9 5 11 -8 10 -13 -1 -18
6 -16 24 1 14 -1 19 -3 13 -6 -15 -15 -7 -53 46 -21 30 -22 36 -9 45 8 6 15
15 16 21 0 5 9 12 19 16 10 4 12 8 5 8 -8 1 -1 18 19 46 24 33 35 42 42 33 6
-9 7 -8 3 4 -5 17 145 245 185 280 10 9 19 22 19 28 0 7 8 20 18 29 10 9 22
25 26 36 6 16 9 17 17 5 9 -12 10 -12 5 3 -7 22 81 147 104 147 13 0 13 1 0
10 -12 8 -12 10 3 16 9 3 15 10 12 14 -3 5 5 16 17 24 12 9 18 16 13 16 -6 0
-3 6 6 13 9 7 18 17 20 22 2 6 10 9 17 9 10 -2 10 1 1 12 -7 9 -8 14 -1 14 6
0 13 8 16 18 3 9 19 33 36 52 16 19 30 38 30 43 0 4 9 16 20 27 18 18 18 20 3
21 -10 1 -29 2 -43 2 -14 1 -25 7 -25 14 0 6 -3 15 -7 19 -4 3 -6 -3 -3 -14z
m-653 -1145 c45 -69 52 -79 73 -105 11 -13 19 -26 17 -28 -1 -3 3 -11 10 -18
24 -25 48 -56 48 -62 0 -3 6 -11 13 -18 6 -8 19 -24 27 -36 8 -12 21 -28 27
-35 10 -11 10 -14 0 -18 -7 -3 -5 -6 6 -6 9 -1 17 -6 17 -12 0 -12 -76 -143
-136 -236 -19 -28 -34 -55 -34 -60 0 -5 -5 -14 -11 -20 -13 -13 -34 11 -140
167 -35 52 -69 100 -76 107 -6 7 -21 29 -34 50 -13 21 -29 44 -36 51 -14 15
-18 42 -5 42 4 0 18 20 32 45 14 25 28 45 32 45 4 0 14 15 23 33 8 18 29 47
45 65 16 18 27 32 24 32 -3 0 4 14 16 30 12 17 24 30 28 30 4 0 19 -20 34 -43z
m-882 -927 c0 -5 10 -20 23 -33 19 -21 127 -169 167 -232 8 -13 41 -59 73
-104 l57 -81 -67 -96 c-38 -53 -87 -120 -110 -149 -23 -29 -39 -56 -35 -61 4
-4 2 -4 -4 -1 -6 4 -16 -5 -22 -18 -7 -14 -16 -25 -22 -25 -6 0 -9 -4 -6 -8 2
-4 1 -14 -4 -22 -7 -11 -11 -11 -23 -1 -12 9 -17 9 -23 0 -4 -7 -3 -9 4 -5 14
8 24 -8 16 -27 -7 -18 -34 -11 -34 8 0 7 -7 18 -15 25 -9 7 -14 19 -11 27 3 8
2 11 -4 8 -7 -5 -63 66 -105 134 -5 9 -18 26 -27 40 -10 13 -15 28 -11 35 3 6
3 8 -2 4 -10 -10 -37 11 -29 23 3 5 0 9 -6 9 -7 0 -9 7 -6 16 3 8 2 13 -3 10
-10 -6 -61 63 -61 83 0 7 -4 10 -9 7 -18 -11 -22 28 -5 41 10 7 13 13 7 13 -7
0 -15 -4 -18 -10 -3 -5 -11 -10 -16 -10 -6 0 -7 5 -4 10 3 6 1 10 -5 10 -6 0
1 23 16 50 15 28 31 50 36 50 5 0 6 -5 2 -12 -4 -6 -3 -8 4 -5 5 4 9 15 8 24
-2 9 4 24 13 33 9 9 22 26 30 38 8 11 19 18 24 15 6 -3 7 -1 3 5 -12 20 4 34
22 20 15 -12 16 -11 3 5 -14 18 -15 16 28 68 8 10 19 16 25 15 6 -2 8 -1 4 1
-13 7 -9 18 15 43 12 14 22 27 22 30 0 3 9 17 19 33 l18 27 24 -25 c13 -14 24
-30 24 -35z m1794 8 c-2 -3 -1 -8 4 -10 4 -1 18 -16 30 -32 18 -23 20 -31 10
-39 -10 -6 -9 -8 3 -4 12 4 33 -18 75 -80 33 -46 64 -92 69 -101 6 -9 16 -22
23 -30 15 -16 15 -24 2 -40 -7 -9 -7 -9 2 -2 17 14 25 12 32 -6 4 -9 1 -24 -6
-33 -12 -14 -11 -15 5 -2 24 19 31 9 9 -15 -10 -10 -21 -27 -25 -38 -6 -14
-10 -16 -21 -7 -11 9 -16 9 -22 0 -4 -7 -3 -9 4 -5 23 14 22 -16 -1 -38 -14
-13 -23 -27 -20 -30 4 -3 1 -6 -6 -6 -7 0 -9 -5 -6 -10 3 -6 -1 -13 -9 -16 -9
-3 -14 -10 -11 -14 3 -4 -2 -10 -10 -14 -8 -3 -15 -10 -15 -16 0 -11 -9 -24
-42 -61 -10 -10 -19 -22 -20 -26 0 -5 -26 -43 -56 -86 -43 -62 -57 -75 -68
-66 -7 6 -16 19 -19 30 -4 11 -11 16 -17 13 -7 -4 -8 -2 -4 4 4 7 2 12 -4 12
-6 0 -10 6 -9 13 3 24 -1 37 -12 37 -8 0 -7 -6 2 -17 11 -15 11 -16 -1 -6 -8
7 -62 77 -120 155 l-107 143 141 212 c79 118 146 210 153 208 7 -2 15 1 19 7
4 7 3 8 -4 4 -17 -10 -15 6 4 32 16 23 17 23 34 5 9 -10 16 -21 14 -25z m-880
-1271 c36 -49 63 -94 60 -99 -4 -6 -3 -8 3 -5 10 6 53 -44 53 -63 0 -5 5 -10
10 -10 7 0 7 -7 0 -20 -6 -11 -15 -18 -20 -15 -6 3 -7 -1 -4 -9 3 -9 -5 -26
-20 -41 -14 -14 -26 -29 -26 -34 0 -15 -47 -71 -54 -64 -4 4 -5 1 -1 -7 3 -8
-6 -27 -19 -41 -14 -15 -22 -30 -19 -33 4 -3 -1 -6 -10 -6 -9 0 -17 5 -17 10
0 6 -9 20 -20 32 -11 12 -20 28 -20 35 0 7 -4 13 -9 13 -11 0 -44 50 -44 67 0
6 -5 11 -11 10 -6 -1 -12 8 -14 21 -2 12 -7 20 -12 17 -4 -3 -20 15 -34 40
-25 43 -26 46 -10 70 9 14 20 23 24 20 5 -3 12 0 16 6 4 8 3 9 -4 5 -7 -4 -12
-2 -12 3 0 6 5 11 10 11 6 0 10 7 10 15 0 8 6 15 14 15 8 0 18 5 22 12 4 7 3
8 -4 4 -17 -11 -15 9 3 24 8 7 15 16 15 21 0 17 63 100 70 92 4 -4 38 -48 74
-96z"/>
<path d="M4600 6180 c-12 -7 -10 -9 7 -7 12 0 19 5 17 9 -6 10 -6 10 -24 -2z"/>
<path d="M4535 6100 c3 -5 8 -10 11 -10 2 0 4 5 4 10 0 6 -5 10 -11 10 -5 0
-7 -4 -4 -10z"/>
<path d="M4510 6066 c0 -2 7 -7 16 -10 8 -3 12 -2 9 4 -6 10 -25 14 -25 6z"/>
<path d="M4469 6003 c-13 -16 -12 -17 4 -4 9 7 17 15 17 17 0 8 -8 3 -21 -13z"/>
<path d="M4435 6001 c-3 -5 -2 -12 3 -15 5 -3 9 1 9 9 0 17 -3 19 -12 6z"/>
<path d="M4815 5980 c3 -5 8 -10 11 -10 2 0 4 5 4 10 0 6 -5 10 -11 10 -5 0
-7 -4 -4 -10z"/>
<path d="M3679 5173 c-13 -16 -12 -17 4 -4 16 13 21 21 13 21 -2 0 -10 -8 -17
-17z"/>
<path d="M3633 5125 c0 -8 4 -15 9 -15 4 0 8 4 8 9 0 6 -4 12 -8 15 -5 3 -9
-1 -9 -9z"/>
<path d="M3570 5019 c0 -5 5 -7 10 -4 6 3 10 8 10 11 0 2 -4 4 -10 4 -5 0 -10
-5 -10 -11z"/>
<path d="M3599 4913 c-13 -16 -12 -17 4 -4 16 13 21 21 13 21 -2 0 -10 -8 -17
-17z"/>
<path d="M3530 4899 c0 -5 5 -7 10 -4 6 3 10 8 10 11 0 2 -4 4 -10 4 -5 0 -10
-5 -10 -11z"/>
<path d="M3575 4820 c3 -5 8 -10 11 -10 2 0 4 5 4 10 0 6 -5 10 -11 10 -5 0
-7 -4 -4 -10z"/>
<path d="M3695 4820 c3 -5 8 -10 11 -10 2 0 4 5 4 10 0 6 -5 10 -11 10 -5 0
-7 -4 -4 -10z"/>
<path d="M3670 4776 c0 -2 8 -10 18 -17 15 -13 16 -12 3 4 -13 16 -21 21 -21
13z"/>
<path d="M3749 4763 c-13 -16 -12 -17 4 -4 9 7 17 15 17 17 0 8 -8 3 -21 -13z"/>
<path d="M3695 4660 c3 -5 8 -10 11 -10 2 0 4 5 4 10 0 6 -5 10 -11 10 -5 0
-7 -4 -4 -10z"/>
<path d="M3790 4640 c0 -5 5 -10 10 -10 6 0 10 5 10 10 0 6 -4 10 -10 10 -5 0
-10 -4 -10 -10z"/>
<path d="M3844 4632 c20 -22 46 -30 46 -12 0 5 -7 7 -15 4 -10 -4 -14 -1 -12
7 2 8 2 10 -1 6 -2 -4 -11 -2 -20 5 -12 9 -11 6 2 -10z"/>
<path d="M3710 4622 c25 -8 50 -38 50 -60 0 -4 10 -8 23 -9 l22 -2 -22 12
c-19 11 -20 14 -8 31 20 27 11 35 -38 34 -23 0 -35 -3 -27 -6z m64 -17 c-5
-12 -10 -13 -20 -4 -19 15 -18 19 6 19 13 0 18 -5 14 -15z"/>
<path d="M3813 4619 c-6 -6 -9 -18 -6 -27 4 -10 2 -13 -5 -8 -7 4 -12 2 -12
-3 0 -18 19 -12 30 9 7 12 16 18 23 13 7 -4 7 0 -2 10 -16 20 -14 20 -28 6z"/>
<path d="M3845 4590 c-16 -7 -17 -9 -3 -9 9 -1 20 4 23 9 7 11 7 11 -20 0z"/>
<path d="M3715 4580 c-3 -5 -1 -10 4 -10 6 0 11 5 11 10 0 6 -2 10 -4 10 -3 0
-8 -4 -11 -10z"/>
<path d="M3815 4540 c3 -5 8 -10 11 -10 2 0 4 5 4 10 0 6 -5 10 -11 10 -5 0
-7 -4 -4 -10z"/>
<path d="M3773 4524 c0 -10 4 -11 13 -3 8 7 14 7 19 -1 3 -5 12 -10 18 -10 7
0 3 6 -8 12 -29 17 -42 18 -42 2z"/>
<path d="M5555 5289 c-4 -6 -5 -12 -2 -15 2 -3 7 2 10 11 7 17 1 20 -8 4z"/>
<path d="M5610 5200 c0 -5 5 -10 11 -10 5 0 7 5 4 10 -3 6 -8 10 -11 10 -2 0
-4 -4 -4 -10z"/>
<path d="M5735 4980 c-3 -5 -1 -10 4 -10 6 0 11 5 11 10 0 6 -2 10 -4 10 -3 0
-8 -4 -11 -10z"/>
<path d="M5700 4886 c0 -2 8 -10 18 -17 15 -13 16 -12 3 4 -13 16 -21 21 -21
13z"/>
<path d="M5655 4860 c3 -5 8 -10 11 -10 2 0 4 5 4 10 0 6 -5 10 -11 10 -5 0
-7 -4 -4 -10z"/>
<path d="M5675 4801 c-3 -5 -2 -12 3 -15 5 -3 9 1 9 9 0 17 -3 19 -12 6z"/>
<path d="M5559 4753 c-13 -16 -12 -17 4 -4 16 13 21 21 13 21 -2 0 -10 -8 -17
-17z"/>
<path d="M5495 4700 c-3 -5 -1 -10 4 -10 6 0 11 5 11 10 0 6 -2 10 -4 10 -3 0
-8 -4 -11 -10z"/>
<path d="M5455 4640 c-3 -5 -1 -10 4 -10 6 0 11 5 11 10 0 6 -2 10 -4 10 -3 0
-8 -4 -11 -10z"/>
<path d="M5532 4639 c2 -8 -8 -13 -26 -13 -17 -1 -31 -7 -33 -16 -3 -9 -1 -11
4 -5 12 15 43 12 57 -7 11 -15 13 -15 24 3 7 11 8 19 2 19 -5 0 -10 -5 -10
-11 0 -5 -5 -7 -10 -4 -8 5 -8 11 0 20 8 9 8 15 0 20 -6 4 -9 1 -8 -6z"/>
<path d="M5570 4640 c0 -5 5 -10 11 -10 5 0 7 5 4 10 -3 6 -8 10 -11 10 -2 0
-4 -4 -4 -10z"/>
<path d="M5510 4593 c5 -2 8 -9 4 -14 -3 -5 0 -9 6 -9 15 0 7 23 -8 26 -7 1
-8 0 -2 -3z"/>
<path d="M5470 4581 c0 -5 7 -11 14 -14 10 -4 13 -1 9 9 -6 15 -23 19 -23 5z"/>
<path d="M5496 4537 c3 -10 9 -15 12 -12 3 3 0 11 -7 18 -10 9 -11 8 -5 -6z"/>
<path d="M4673 3845 c0 -8 4 -15 9 -15 4 0 8 4 8 9 0 6 -4 12 -8 15 -5 3 -9
-1 -9 -9z"/>
<path d="M4636 3838 c3 -5 10 -6 15 -3 13 9 11 12 -6 12 -8 0 -12 -4 -9 -9z"/>
<path d="M4530 3819 c0 -5 5 -7 10 -4 6 3 10 8 10 11 0 2 -4 4 -10 4 -5 0 -10
-5 -10 -11z"/>
<path d="M4187 7399 c7 -7 15 -10 18 -7 3 3 -2 9 -12 12 -14 6 -15 5 -6 -5z"/>
<path d="M4130 7380 c0 -5 5 -10 11 -10 5 0 7 5 4 10 -3 6 -8 10 -11 10 -2 0
-4 -4 -4 -10z"/>
<path d="M4250 7339 c0 -5 5 -7 10 -4 6 3 10 8 10 11 0 2 -4 4 -10 4 -5 0 -10
-5 -10 -11z"/>
<path d="M5389 7283 c-13 -16 -12 -17 4 -4 9 7 17 15 17 17 0 8 -8 3 -21 -13z"/>
<path d="M3870 7279 c0 -5 5 -7 10 -4 6 3 10 8 10 11 0 2 -4 4 -10 4 -5 0 -10
-5 -10 -11z"/>
<path d="M4255 7260 c3 -5 8 -10 11 -10 2 0 4 5 4 10 0 6 -5 10 -11 10 -5 0
-7 -4 -4 -10z"/>
<path d="M5000 7240 c-9 -6 -10 -10 -3 -10 6 0 15 5 18 10 8 12 4 12 -15 0z"/>
<path d="M4260 7206 c0 -2 8 -10 18 -17 15 -13 16 -12 3 4 -13 16 -21 21 -21
13z"/>
<path d="M4990 7201 c0 -6 4 -12 8 -15 5 -3 9 1 9 9 0 8 -4 15 -9 15 -4 0 -8
-4 -8 -9z"/>
<path d="M4020 7126 c0 -2 8 -10 18 -17 15 -13 16 -12 3 4 -13 16 -21 21 -21
13z"/>
<path d="M4340 7126 c0 -2 8 -10 18 -17 15 -13 16 -12 3 4 -13 16 -21 21 -21
13z"/>
<path d="M4290 7100 c0 -5 5 -10 11 -10 5 0 7 5 4 10 -3 6 -8 10 -11 10 -2 0
-4 -4 -4 -10z"/>
<path d="M5015 7100 c-3 -5 -1 -10 4 -10 6 0 11 5 11 10 0 6 -2 10 -4 10 -3 0
-8 -4 -11 -10z"/>
<path d="M5230 7038 c0 -4 4 -8 9 -8 6 0 12 4 15 8 3 5 -1 9 -9 9 -8 0 -15 -4
-15 -9z"/>
<path d="M4955 7021 c-3 -5 -2 -12 3 -15 5 -3 9 1 9 9 0 17 -3 19 -12 6z"/>
<path d="M4075 7001 c-3 -5 -2 -12 3 -15 5 -3 9 1 9 9 0 17 -3 19 -12 6z"/>
<path d="M5136 6978 c3 -5 10 -6 15 -3 13 9 11 12 -6 12 -8 0 -12 -4 -9 -9z"/>
<path d="M4835 6969 c-4 -6 -5 -12 -2 -15 2 -3 7 2 10 11 7 17 1 20 -8 4z"/>
<path d="M4476 6953 c-6 -14 -5 -15 5 -6 7 7 10 15 7 18 -3 3 -9 -2 -12 -12z"/>
<path d="M4510 6960 c0 -5 5 -10 11 -10 5 0 7 5 4 10 -3 6 -8 10 -11 10 -2 0
-4 -4 -4 -10z"/>
<path d="M4936 6953 c-6 -14 -5 -15 5 -6 7 7 10 15 7 18 -3 3 -9 -2 -12 -12z"/>
<path d="M5175 6949 c-4 -6 -5 -12 -2 -15 2 -3 7 2 10 11 7 17 1 20 -8 4z"/>
<path d="M4370 6940 c0 -5 5 -10 11 -10 5 0 7 5 4 10 -3 6 -8 10 -11 10 -2 0
-4 -4 -4 -10z"/>
<path d="M4517 6813 c-10 -9 -9 -23 1 -23 5 0 9 7 9 15 0 17 -1 18 -10 8z"/>
<path d="M4476 6793 c-6 -14 -5 -15 5 -6 7 7 10 15 7 18 -3 3 -9 -2 -12 -12z"/>
<path d="M4550 6801 c0 -6 4 -13 10 -16 6 -3 7 1 4 9 -7 18 -14 21 -14 7z"/>
<path d="M4747 6799 c7 -7 15 -10 18 -7 3 3 -2 9 -12 12 -14 6 -15 5 -6 -5z"/>
<path d="M4610 6779 c0 -5 5 -7 10 -4 6 3 10 8 10 11 0 2 -4 4 -10 4 -5 0 -10
-5 -10 -11z"/>
<path d="M4550 6696 c0 -2 8 -10 18 -17 15 -13 16 -12 3 4 -13 16 -21 21 -21
13z"/>
<path d="M4629 6683 c-13 -16 -12 -17 4 -4 9 7 17 15 17 17 0 8 -8 3 -21 -13z"/>
<path d="M4710 6696 c0 -2 8 -10 18 -17 15 -13 16 -12 3 4 -13 16 -21 21 -21
13z"/>
<path d="M4650 6660 c0 -5 5 -10 11 -10 5 0 7 5 4 10 -3 6 -8 10 -11 10 -2 0
-4 -4 -4 -10z"/>
<path d="M4330 6640 c0 -5 5 -10 11 -10 5 0 7 5 4 10 -3 6 -8 10 -11 10 -2 0
-4 -4 -4 -10z"/>
<path d="M4873 6595 c0 -8 4 -12 9 -9 4 3 8 9 8 15 0 5 -4 9 -8 9 -5 0 -9 -7
-9 -15z"/>
<path d="M4820 6486 c0 -2 8 -10 18 -17 15 -13 16 -12 3 4 -13 16 -21 21 -21
13z"/>
<path d="M4919 6393 c-13 -16 -12 -17 4 -4 9 7 17 15 17 17 0 8 -8 3 -21 -13z"/>
<path d="M4455 6380 c3 -5 8 -10 11 -10 2 0 4 5 4 10 0 6 -5 10 -11 10 -5 0
-7 -4 -4 -10z"/>
<path d="M4490 6379 c0 -5 5 -7 10 -4 6 3 10 8 10 11 0 2 -4 4 -10 4 -5 0 -10
-5 -10 -11z"/>
<path d="M4766 6362 c-3 -5 1 -9 9 -9 8 0 12 4 9 9 -3 4 -7 8 -9 8 -2 0 -6 -4
-9 -8z"/>
<path d="M4370 6340 c0 -5 5 -10 11 -10 5 0 7 5 4 10 -3 6 -8 10 -11 10 -2 0
-4 -4 -4 -10z"/>
<path d="M4490 6339 c0 -5 5 -7 10 -4 6 3 10 8 10 11 0 2 -4 4 -10 4 -5 0 -10
-5 -10 -11z"/>
<path d="M4970 6339 c0 -5 5 -7 10 -4 6 3 10 8 10 11 0 2 -4 4 -10 4 -5 0 -10
-5 -10 -11z"/>
<path d="M4916 6327 c3 -10 9 -15 12 -12 3 3 0 11 -7 18 -10 9 -11 8 -5 -6z"/>
<path d="M4875 6249 c-4 -6 -5 -12 -2 -15 2 -3 7 2 10 11 7 17 1 20 -8 4z"/>
<path d="M4350 6240 c0 -5 5 -10 10 -10 6 0 10 5 10 10 0 6 -4 10 -10 10 -5 0
-10 -4 -10 -10z"/>
<path d="M4390 6241 c0 -6 4 -13 10 -16 6 -3 7 1 4 9 -7 18 -14 21 -14 7z"/>
<path d="M4999 6178 c-5 -18 -6 -38 -1 -34 7 8 12 36 6 36 -2 0 -4 -1 -5 -2z"/>
<path d="M6533 6055 c0 -8 4 -12 9 -9 5 3 6 10 3 15 -9 13 -12 11 -12 -6z"/>
<path d="M2593 6035 c0 -8 4 -12 9 -9 5 3 6 10 3 15 -9 13 -12 11 -12 -6z"/>
<path d="M2675 6041 c-3 -5 -2 -12 3 -15 5 -3 9 1 9 9 0 17 -3 19 -12 6z"/>
<path d="M6670 6041 c0 -6 4 -13 10 -16 6 -3 7 1 4 9 -7 18 -14 21 -14 7z"/>
<path d="M6756 6033 c-6 -14 -5 -15 5 -6 7 7 10 15 7 18 -3 3 -9 -2 -12 -12z"/>
<path d="M2895 6020 c-3 -5 -1 -10 4 -10 6 0 11 5 11 10 0 6 -2 10 -4 10 -3 0
-8 -4 -11 -10z"/>
<path d="M6594 6009 c-3 -6 -2 -15 3 -20 5 -5 9 -1 9 11 0 23 -2 24 -12 9z"/>
<path d="M2867 5999 c7 -7 15 -10 18 -7 3 3 -2 9 -12 12 -14 6 -15 5 -6 -5z"/>
<path d="M6393 5995 c0 -8 4 -12 9 -9 5 3 6 10 3 15 -9 13 -12 11 -12 -6z"/>
<path d="M6460 6006 c0 -2 8 -10 18 -17 15 -13 16 -12 3 4 -13 16 -21 21 -21
13z"/>
<path d="M2790 5976 c0 -2 8 -10 18 -17 15 -13 16 -12 3 4 -13 16 -21 21 -21
13z"/>
<path d="M6710 5976 c0 -2 8 -10 18 -17 15 -13 16 -12 3 4 -13 16 -21 21 -21
13z"/>
<path d="M2865 5959 c-3 -4 2 -6 10 -5 21 3 28 13 10 13 -9 0 -18 -4 -20 -8z"/>
<path d="M2915 5961 c-3 -5 -2 -12 3 -15 5 -3 9 1 9 9 0 17 -3 19 -12 6z"/>
<path d="M6355 5960 c-3 -5 -1 -10 4 -10 6 0 11 5 11 10 0 6 -2 10 -4 10 -3 0
-8 -4 -11 -10z"/>
<path d="M6396 5962 c-3 -5 1 -9 9 -9 8 0 12 4 9 9 -3 4 -7 8 -9 8 -2 0 -6 -4
-9 -8z"/>
<path d="M6356 5918 c3 -5 10 -6 15 -3 13 9 11 12 -6 12 -8 0 -12 -4 -9 -9z"/>
<path d="M2890 5900 c0 -5 5 -10 11 -10 5 0 7 5 4 10 -3 6 -8 10 -11 10 -2 0
-4 -4 -4 -10z"/>
<path d="M6310 5882 c0 -5 7 -9 15 -9 8 0 12 4 9 9 -3 4 -9 8 -15 8 -5 0 -9
-4 -9 -8z"/>
<path d="M6690 5859 c0 -5 5 -7 10 -4 6 3 10 8 10 11 0 2 -4 4 -10 4 -5 0 -10
-5 -10 -11z"/>
<path d="M2595 5849 c-4 -6 -5 -12 -2 -15 2 -3 7 2 10 11 7 17 1 20 -8 4z"/>
<path d="M2960 5800 c-9 -6 -10 -10 -3 -10 6 0 15 5 18 10 8 12 4 12 -15 0z"/>
<path d="M6375 5780 c3 -5 8 -10 11 -10 2 0 4 5 4 10 0 6 -5 10 -11 10 -5 0
-7 -4 -4 -10z"/>
<path d="M6295 5740 c-3 -5 -1 -10 4 -10 6 0 11 5 11 10 0 6 -2 10 -4 10 -3 0
-8 -4 -11 -10z"/>
<path d="M2980 5686 c0 -2 8 -10 18 -17 15 -13 16 -12 3 4 -13 16 -21 21 -21
13z"/>
<path d="M6307 5679 c7 -7 15 -10 18 -7 3 3 -2 9 -12 12 -14 6 -15 5 -6 -5z"/>
<path d="M6519 5673 c-13 -16 -12 -17 4 -4 16 13 21 21 13 21 -2 0 -10 -8 -17
-17z"/>
<path d="M6176 5655 c-9 -26 -7 -32 5 -12 6 10 9 21 6 23 -2 3 -7 -2 -11 -11z"/>
<path d="M6210 5660 c0 -5 5 -10 11 -10 5 0 7 5 4 10 -3 6 -8 10 -11 10 -2 0
-4 -4 -4 -10z"/>
<path d="M6506 5638 c3 -5 10 -6 15 -3 13 9 11 12 -6 12 -8 0 -12 -4 -9 -9z"/>
<path d="M6275 5631 c-3 -5 -2 -12 3 -15 5 -3 9 1 9 9 0 17 -3 19 -12 6z"/>
<path d="M6135 5609 c-4 -6 -5 -12 -2 -15 2 -3 7 2 10 11 7 17 1 20 -8 4z"/>
<path d="M3530 5539 c0 -5 5 -7 10 -4 6 3 10 8 10 11 0 2 -4 4 -10 4 -5 0 -10
-5 -10 -11z"/>
<path d="M5770 5540 c0 -5 5 -10 11 -10 5 0 7 5 4 10 -3 6 -8 10 -11 10 -2 0
-4 -4 -4 -10z"/>
<path d="M6110 5540 c0 -5 5 -10 11 -10 5 0 7 5 4 10 -3 6 -8 10 -11 10 -2 0
-4 -4 -4 -10z"/>
<path d="M5713 5515 c0 -8 4 -12 9 -9 4 3 8 9 8 15 0 5 -4 9 -8 9 -5 0 -9 -7
-9 -15z"/>
<path d="M3240 5500 c8 -5 20 -10 25 -10 6 0 3 5 -5 10 -8 5 -19 10 -25 10 -5
0 -3 -5 5 -10z"/>
<path d="M3530 5499 c0 -5 5 -7 10 -4 6 3 10 8 10 11 0 2 -4 4 -10 4 -5 0 -10
-5 -10 -11z"/>
<path d="M6095 5500 c3 -5 8 -10 11 -10 2 0 4 5 4 10 0 6 -5 10 -11 10 -5 0
-7 -4 -4 -10z"/>
<path d="M6395 5491 c-3 -5 -2 -12 3 -15 5 -3 9 1 9 9 0 17 -3 19 -12 6z"/>
<path d="M3495 5460 c-3 -5 -1 -10 4 -10 6 0 11 5 11 10 0 6 -2 10 -4 10 -3 0
-8 -4 -11 -10z"/>
<path d="M6155 5460 c-3 -5 -1 -10 4 -10 6 0 11 5 11 10 0 6 -2 10 -4 10 -3 0
-8 -4 -11 -10z"/>
<path d="M5710 5456 c0 -2 8 -10 18 -17 15 -13 16 -12 3 4 -13 16 -21 21 -21
13z"/>
<path d="M6359 5433 c-13 -16 -12 -17 4 -4 16 13 21 21 13 21 -2 0 -10 -8 -17
-17z"/>
<path d="M3175 5420 c3 -5 8 -10 11 -10 2 0 4 5 4 10 0 6 -5 10 -11 10 -5 0
-7 -4 -4 -10z"/>
<path d="M3495 5420 c3 -5 8 -10 11 -10 2 0 4 5 4 10 0 6 -5 10 -11 10 -5 0
-7 -4 -4 -10z"/>
<path d="M6095 5420 c3 -5 8 -10 11 -10 2 0 4 5 4 10 0 6 -5 10 -11 10 -5 0
-7 -4 -4 -10z"/>
<path d="M3275 5411 c-3 -5 -2 -12 3 -15 5 -3 9 1 9 9 0 17 -3 19 -12 6z"/>
<path d="M5815 5380 c-3 -5 -1 -10 4 -10 6 0 11 5 11 10 0 6 -2 10 -4 10 -3 0
-8 -4 -11 -10z"/>
<path d="M3555 5369 c-4 -6 -5 -12 -2 -15 2 -3 7 2 10 11 7 17 1 20 -8 4z"/>
<path d="M3467 5359 c7 -7 15 -10 18 -7 3 3 -2 9 -12 12 -14 6 -15 5 -6 -5z"/>
<path d="M3515 5360 c-3 -5 -1 -10 4 -10 6 0 11 5 11 10 0 6 -2 10 -4 10 -3 0
-8 -4 -11 -10z"/>
<path d="M6010 5339 c0 -5 5 -7 10 -4 6 3 10 8 10 11 0 2 -4 4 -10 4 -5 0 -10
-5 -10 -11z"/>
<path d="M2955 5320 c-3 -5 -1 -10 4 -10 6 0 11 5 11 10 0 6 -2 10 -4 10 -3 0
-8 -4 -11 -10z"/>
<path d="M2990 5321 c0 -6 4 -13 10 -16 6 -3 7 1 4 9 -7 18 -14 21 -14 7z"/>
<path d="M5825 5319 c-3 -4 2 -6 10 -5 21 3 28 13 10 13 -9 0 -18 -4 -20 -8z"/>
<path d="M3295 5300 c-3 -5 -1 -10 4 -10 6 0 11 5 11 10 0 6 -2 10 -4 10 -3 0
-8 -4 -11 -10z"/>
<path d="M3415 5260 c-3 -5 -1 -10 4 -10 6 0 11 5 11 10 0 6 -2 10 -4 10 -3 0
-8 -4 -11 -10z"/>
<path d="M3475 5260 c3 -5 8 -10 11 -10 2 0 4 5 4 10 0 6 -5 10 -11 10 -5 0
-7 -4 -4 -10z"/>
<path d="M5815 5260 c3 -5 8 -10 11 -10 2 0 4 5 4 10 0 6 -5 10 -11 10 -5 0
-7 -4 -4 -10z"/>
<path d="M6010 5259 c0 -5 5 -7 10 -4 6 3 10 8 10 11 0 2 -4 4 -10 4 -5 0 -10
-5 -10 -11z"/>
<path d="M3349 5243 c-13 -16 -12 -17 4 -4 9 7 17 15 17 17 0 8 -8 3 -21 -13z"/>
<path d="M3266 5242 c-2 -4 4 -8 14 -8 10 0 16 4 14 8 -3 4 -9 8 -14 8 -5 0
-11 -4 -14 -8z"/>
<path d="M6230 5238 c0 -4 4 -8 9 -8 6 0 12 4 15 8 3 5 -1 9 -9 9 -8 0 -15 -4
-15 -9z"/>
<path d="M5950 5166 c0 -2 7 -7 16 -10 8 -3 12 -2 9 4 -6 10 -25 14 -25 6z"/>
<path d="M5890 5140 c0 -5 5 -10 11 -10 5 0 7 5 4 10 -3 6 -8 10 -11 10 -2 0
-4 -4 -4 -10z"/>
<path d="M6150 5140 c0 -5 5 -10 11 -10 5 0 7 5 4 10 -3 6 -8 10 -11 10 -2 0
-4 -4 -4 -10z"/>
<path d="M3130 5059 c0 -5 5 -7 10 -4 6 3 10 8 10 11 0 2 -4 4 -10 4 -5 0 -10
-5 -10 -11z"/>
<path d="M3175 4980 c-3 -5 -1 -10 4 -10 6 0 11 5 11 10 0 6 -2 10 -4 10 -3 0
-8 -4 -11 -10z"/>
<path d="M3116 4918 c3 -5 10 -6 15 -3 13 9 11 12 -6 12 -8 0 -12 -4 -9 -9z"/>
<path d="M3190 4916 c7 -7 13 -7 20 0 6 6 3 10 -10 10 -13 0 -16 -4 -10 -10z"/>
<path d="M6210 4859 c0 -5 5 -7 10 -4 6 3 10 8 10 11 0 2 -4 4 -10 4 -5 0 -10
-5 -10 -11z"/>
<path d="M6130 4820 c0 -5 5 -10 11 -10 5 0 7 5 4 10 -3 6 -8 10 -11 10 -2 0
-4 -4 -4 -10z"/>
<path d="M6315 4809 c-4 -6 -5 -12 -2 -15 2 -3 7 2 10 11 7 17 1 20 -8 4z"/>
<path d="M5886 4798 c3 -5 10 -6 15 -3 13 9 11 12 -6 12 -8 0 -12 -4 -9 -9z"/>
<path d="M6230 4776 c0 -2 8 -10 18 -17 15 -13 16 -12 3 4 -13 16 -21 21 -21
13z"/>
<path d="M3337 4755 c-4 -8 -3 -16 1 -19 4 -3 9 4 9 15 2 23 -3 25 -10 4z"/>
<path d="M6306 4762 c-3 -5 1 -9 9 -9 8 0 12 4 9 9 -3 4 -7 8 -9 8 -2 0 -6 -4
-9 -8z"/>
<path d="M5880 4740 c-12 -7 -10 -9 7 -7 12 0 19 5 17 9 -6 10 -6 10 -24 -2z"/>
<path d="M3079 4713 c-13 -16 -12 -17 4 -4 16 13 21 21 13 21 -2 0 -10 -8 -17
-17z"/>
<path d="M6316 4713 c-6 -14 -5 -15 5 -6 7 7 10 15 7 18 -3 3 -9 -2 -12 -12z"/>
<path d="M6350 4720 c0 -5 5 -10 10 -10 6 0 10 5 10 10 0 6 -4 10 -10 10 -5 0
-10 -4 -10 -10z"/>
<path d="M3290 4700 c0 -5 5 -10 11 -10 5 0 7 5 4 10 -3 6 -8 10 -11 10 -2 0
-4 -4 -4 -10z"/>
<path d="M6255 4700 c3 -5 8 -10 11 -10 2 0 4 5 4 10 0 6 -5 10 -11 10 -5 0
-7 -4 -4 -10z"/>
<path d="M2956 4687 c3 -10 9 -15 12 -12 3 3 0 11 -7 18 -10 9 -11 8 -5 -6z"/>
<path d="M3430 4686 c0 -2 7 -7 16 -10 8 -3 12 -2 9 4 -6 10 -25 14 -25 6z"/>
<path d="M2894 4656 c1 -8 5 -18 8 -22 4 -3 5 1 4 10 -1 8 -5 18 -8 22 -4 3
-5 -1 -4 -10z"/>
<path d="M3230 4660 c0 -5 5 -10 11 -10 5 0 7 5 4 10 -3 6 -8 10 -11 10 -2 0
-4 -4 -4 -10z"/>
<path d="M5815 4660 c3 -5 8 -10 11 -10 2 0 4 5 4 10 0 6 -5 10 -11 10 -5 0
-7 -4 -4 -10z"/>
<path d="M6396 4647 c3 -10 9 -15 12 -12 3 3 0 11 -7 18 -10 9 -11 8 -5 -6z"/>
<path d="M6430 4641 c0 -6 4 -13 10 -16 6 -3 7 1 4 9 -7 18 -14 21 -14 7z"/>
<path d="M5790 4626 c0 -2 7 -7 16 -10 8 -3 12 -2 9 4 -6 10 -25 14 -25 6z"/>
<path d="M6040 4620 c8 -5 20 -10 25 -10 6 0 3 5 -5 10 -8 5 -19 10 -25 10 -5
0 -3 -5 5 -10z"/>
<path d="M2995 4600 c3 -5 8 -10 11 -10 2 0 4 5 4 10 0 6 -5 10 -11 10 -5 0
-7 -4 -4 -10z"/>
<path d="M6265 4600 c-3 -6 1 -7 9 -4 18 7 21 14 7 14 -6 0 -13 -4 -16 -10z"/>
<path d="M6426 4602 c-3 -5 1 -9 9 -9 8 0 12 4 9 9 -3 4 -7 8 -9 8 -2 0 -6 -4
-9 -8z"/>
<path d="M6050 4579 c0 -5 5 -7 10 -4 6 3 10 8 10 11 0 2 -4 4 -10 4 -5 0 -10
-5 -10 -11z"/>
<path d="M6430 4576 c0 -2 8 -10 18 -17 15 -13 16 -12 3 4 -13 16 -21 21 -21
13z"/>
<path d="M2835 4560 c3 -5 8 -10 11 -10 2 0 4 5 4 10 0 6 -5 10 -11 10 -5 0
-7 -4 -4 -10z"/>
<path d="M3535 4540 c3 -5 8 -10 11 -10 2 0 4 5 4 10 0 6 -5 10 -11 10 -5 0
-7 -4 -4 -10z"/>
<path d="M2796 4522 c-3 -5 1 -9 9 -9 8 0 12 4 9 9 -3 4 -7 8 -9 8 -2 0 -6 -4
-9 -8z"/>
<path d="M5746 4522 c-3 -5 1 -9 9 -9 8 0 12 4 9 9 -3 4 -7 8 -9 8 -2 0 -6 -4
-9 -8z"/>
<path d="M6515 4520 c-3 -5 -1 -10 4 -10 6 0 11 5 11 10 0 6 -2 10 -4 10 -3 0
-8 -4 -11 -10z"/>
<path d="M3160 4500 c-8 -5 -10 -10 -5 -10 6 0 17 5 25 10 8 5 11 10 5 10 -5
0 -17 -5 -25 -10z"/>
<path d="M6110 4500 c0 -5 5 -10 11 -10 5 0 7 5 4 10 -3 6 -8 10 -11 10 -2 0
-4 -4 -4 -10z"/>
<path d="M2789 4483 c-13 -16 -12 -17 4 -4 16 13 21 21 13 21 -2 0 -10 -8 -17
-17z"/>
<path d="M6546 4482 c-3 -5 1 -9 9 -9 8 0 12 4 9 9 -3 4 -7 8 -9 8 -2 0 -6 -4
-9 -8z"/>
<path d="M2750 4460 c0 -5 5 -10 11 -10 5 0 7 5 4 10 -3 6 -8 10 -11 10 -2 0
-4 -4 -4 -10z"/>
<path d="M6375 4460 c-3 -5 -1 -10 4 -10 6 0 11 5 11 10 0 6 -2 10 -4 10 -3 0
-8 -4 -11 -10z"/>
<path d="M6550 4456 c0 -2 8 -10 18 -17 15 -13 16 -12 3 4 -13 16 -21 21 -21
13z"/>
<path d="M2775 4420 c-3 -5 -1 -10 4 -10 6 0 11 5 11 10 0 6 -2 10 -4 10 -3 0
-8 -4 -11 -10z"/>
<path d="M5620 4420 c-12 -7 -10 -9 7 -7 12 0 19 5 17 9 -6 10 -6 10 -24 -2z"/>
<path d="M6439 4393 c-13 -16 -12 -17 4 -4 16 13 21 21 13 21 -2 0 -10 -8 -17
-17z"/>
<path d="M2690 4379 c0 -5 5 -7 10 -4 6 3 10 8 10 11 0 2 -4 4 -10 4 -5 0 -10
-5 -10 -11z"/>
<path d="M2815 4380 c-3 -5 -1 -10 4 -10 6 0 11 5 11 10 0 6 -2 10 -4 10 -3 0
-8 -4 -11 -10z"/>
<path d="M3090 4380 c0 -5 5 -10 11 -10 5 0 7 5 4 10 -3 6 -8 10 -11 10 -2 0
-4 -4 -4 -10z"/>
<path d="M5650 4379 c0 -5 5 -7 10 -4 6 3 10 8 10 11 0 2 -4 4 -10 4 -5 0 -10
-5 -10 -11z"/>
<path d="M6495 4380 c3 -5 8 -10 11 -10 2 0 4 5 4 10 0 6 -5 10 -11 10 -5 0
-7 -4 -4 -10z"/>
<path d="M6610 4379 c0 -5 5 -7 10 -4 6 3 10 8 10 11 0 2 -4 4 -10 4 -5 0 -10
-5 -10 -11z"/>
<path d="M3029 4363 c-13 -16 -12 -17 4 -4 16 13 21 21 13 21 -2 0 -10 -8 -17
-17z"/>
<path d="M6635 4280 c3 -5 8 -10 11 -10 2 0 4 5 4 10 0 6 -5 10 -11 10 -5 0
-7 -4 -4 -10z"/>
<path d="M6670 4281 c0 -6 4 -13 10 -16 6 -3 7 1 4 9 -7 18 -14 21 -14 7z"/>
<path d="M2674 4249 c-3 -6 -2 -15 3 -20 5 -5 9 -1 9 11 0 23 -2 24 -12 9z"/>
<path d="M2636 4233 c-6 -14 -5 -15 5 -6 7 7 10 15 7 18 -3 3 -9 -2 -12 -12z"/>
<path d="M2706 4242 c-3 -5 1 -9 9 -9 8 0 12 4 9 9 -3 4 -7 8 -9 8 -2 0 -6 -4
-9 -8z"/>
<path d="M6710 4216 c0 -2 8 -10 18 -17 15 -13 16 -12 3 4 -13 16 -21 21 -21
13z"/>
<path d="M2935 4180 c-3 -5 -1 -10 4 -10 6 0 11 5 11 10 0 6 -2 10 -4 10 -3 0
-8 -4 -11 -10z"/>
<path d="M6375 4160 c-3 -5 -1 -10 4 -10 6 0 11 5 11 10 0 6 -2 10 -4 10 -3 0
-8 -4 -11 -10z"/>
<path d="M2615 4140 c3 -5 8 -10 11 -10 2 0 4 5 4 10 0 6 -5 10 -11 10 -5 0
-7 -4 -4 -10z"/>
<path d="M2540 4126 c0 -2 8 -10 18 -17 15 -13 16 -12 3 4 -13 16 -21 21 -21
13z"/>
<path d="M6630 4126 c0 -2 7 -7 16 -10 8 -3 12 -2 9 4 -6 10 -25 14 -25 6z"/>
<path d="M6705 4119 c-3 -4 2 -6 10 -5 21 3 28 13 10 13 -9 0 -18 -4 -20 -8z"/>
<path d="M6786 4118 c3 -5 10 -6 15 -3 13 9 11 12 -6 12 -8 0 -12 -4 -9 -9z"/>
<path d="M6420 4080 c-9 -6 -10 -10 -3 -10 6 0 15 5 18 10 8 12 4 12 -15 0z"/>
<path d="M6690 4059 c0 -5 5 -7 10 -4 6 3 10 8 10 11 0 2 -4 4 -10 4 -5 0 -10
-5 -10 -11z"/>
<path d="M6690 4019 c0 -5 5 -7 10 -4 6 3 10 8 10 11 0 2 -4 4 -10 4 -5 0 -10
-5 -10 -11z"/>
<path d="M6855 4020 c3 -5 8 -10 11 -10 2 0 4 5 4 10 0 6 -5 10 -11 10 -5 0
-7 -4 -4 -10z"/>
<path d="M4910 3676 c7 -7 13 -7 20 0 6 6 3 10 -10 10 -13 0 -16 -4 -10 -10z"/>
<path d="M4390 3646 c0 -2 7 -7 16 -10 8 -3 12 -2 9 4 -6 10 -25 14 -25 6z"/>
<path d="M4850 3579 c0 -5 5 -7 10 -4 6 3 10 8 10 11 0 2 -4 4 -10 4 -5 0 -10
-5 -10 -11z"/>
<path d="M4910 3521 c0 -6 4 -13 10 -16 6 -3 7 1 4 9 -7 18 -14 21 -14 7z"/>
<path d="M4375 3500 c-3 -5 -1 -10 4 -10 6 0 11 5 11 10 0 6 -2 10 -4 10 -3 0
-8 -4 -11 -10z"/>
<path d="M4375 3460 c-3 -5 -1 -10 4 -10 6 0 11 5 11 10 0 6 -2 10 -4 10 -3 0
-8 -4 -11 -10z"/>
<path d="M4486 3462 c-3 -5 1 -9 9 -9 8 0 12 4 9 9 -3 4 -7 8 -9 8 -2 0 -6 -4
-9 -8z"/>
<path d="M4850 3460 c0 -5 5 -10 11 -10 5 0 7 5 4 10 -3 6 -8 10 -11 10 -2 0
-4 -4 -4 -10z"/>
<path d="M4395 3409 c-4 -6 -5 -12 -2 -15 2 -3 7 2 10 11 7 17 1 20 -8 4z"/>
<path d="M4430 3406 c0 -2 7 -7 16 -10 8 -3 12 -2 9 4 -6 10 -25 14 -25 6z"/>
<path d="M4830 3380 c0 -5 5 -10 11 -10 5 0 7 5 4 10 -3 6 -8 10 -11 10 -2 0
-4 -4 -4 -10z"/>
<path d="M4890 3379 c0 -5 5 -7 10 -4 6 3 10 8 10 11 0 2 -4 4 -10 4 -5 0 -10
-5 -10 -11z"/>
<path d="M5035 3369 c-4 -6 -5 -12 -2 -15 2 -3 7 2 10 11 7 17 1 20 -8 4z"/>
<path d="M4255 3340 c3 -5 8 -10 11 -10 2 0 4 5 4 10 0 6 -5 10 -11 10 -5 0
-7 -4 -4 -10z"/>
<path d="M4950 3336 c0 -2 8 -10 18 -17 15 -13 16 -12 3 4 -13 16 -21 21 -21
13z"/>
<path d="M4600 3300 c-12 -7 -10 -9 7 -7 12 0 19 5 17 9 -6 10 -6 10 -24 -2z"/>
<path d="M5036 3273 c-6 -14 -5 -15 5 -6 7 7 10 15 7 18 -3 3 -9 -2 -12 -12z"/>
<path d="M5070 3280 c0 -5 5 -10 10 -10 6 0 10 5 10 10 0 6 -4 10 -10 10 -5 0
-10 -4 -10 -10z"/>
<path d="M4975 3260 c3 -5 8 -10 11 -10 2 0 4 5 4 10 0 6 -5 10 -11 10 -5 0
-7 -4 -4 -10z"/>
<path d="M4239 3233 c-13 -16 -12 -17 4 -4 16 13 21 21 13 21 -2 0 -10 -8 -17
-17z"/>
<path d="M4300 3246 c0 -2 8 -10 18 -17 15 -13 16 -12 3 4 -13 16 -21 21 -21
13z"/>
<path d="M4535 3220 c3 -5 8 -10 11 -10 2 0 4 5 4 10 0 6 -5 10 -11 10 -5 0
-7 -4 -4 -10z"/>
<path d="M4510 3186 c0 -2 7 -7 16 -10 8 -3 12 -2 9 4 -6 10 -25 14 -25 6z"/>
<path d="M5160 3180 c8 -5 20 -10 25 -10 6 0 3 5 -5 10 -8 5 -19 10 -25 10 -5
0 -3 -5 5 -10z"/>
<path d="M4985 3160 c-3 -6 1 -7 9 -4 18 7 21 14 7 14 -6 0 -13 -4 -16 -10z"/>
<path d="M4100 3126 c0 -2 8 -10 18 -17 15 -13 16 -12 3 4 -13 16 -21 21 -21
13z"/>
<path d="M4170 3100 c0 -5 5 -10 11 -10 5 0 7 5 4 10 -3 6 -8 10 -11 10 -2 0
-4 -4 -4 -10z"/>
<path d="M4830 3056 c0 -2 8 -10 18 -17 15 -13 16 -12 3 4 -13 16 -21 21 -21
13z"/>
<path d="M5154 3046 c1 -8 5 -18 8 -22 4 -3 5 1 4 10 -1 8 -5 18 -8 22 -4 3
-5 -1 -4 -10z"/>
<path d="M5095 3020 c-3 -5 -1 -10 4 -10 6 0 11 5 11 10 0 6 -2 10 -4 10 -3 0
-8 -4 -11 -10z"/>
<path d="M5250 3020 c0 -5 5 -10 11 -10 5 0 7 5 4 10 -3 6 -8 10 -11 10 -2 0
-4 -4 -4 -10z"/>
<path d="M5293 3009 c-2 -23 3 -25 10 -4 4 8 3 16 -1 19 -4 3 -9 -4 -9 -15z"/>
<path d="M4015 3000 c3 -5 8 -10 11 -10 2 0 4 5 4 10 0 6 -5 10 -11 10 -5 0
-7 -4 -4 -10z"/>
<path d="M4055 2980 c3 -5 8 -10 11 -10 2 0 4 5 4 10 0 6 -5 10 -11 10 -5 0
-7 -4 -4 -10z"/>
<path d="M5290 2939 c0 -5 5 -7 10 -4 6 3 10 8 10 11 0 2 -4 4 -10 4 -5 0 -10
-5 -10 -11z"/>
<path d="M4310 2936 c0 -2 8 -10 18 -17 15 -13 16 -12 3 4 -13 16 -21 21 -21
13z"/>
<path d="M5190 2916 c7 -7 13 -7 20 0 6 6 3 10 -10 10 -13 0 -16 -4 -10 -10z"/>
<path d="M5260 2926 c0 -2 8 -10 18 -17 15 -13 16 -12 3 4 -13 16 -21 21 -21
13z"/>
<path d="M3895 2780 c-3 -5 -1 -10 4 -10 6 0 11 5 11 10 0 6 -2 10 -4 10 -3 0
-8 -4 -11 -10z"/>
<path d="M5410 2780 c0 -5 5 -10 11 -10 5 0 7 5 4 10 -3 6 -8 10 -11 10 -2 0
-4 -4 -4 -10z"/>
<path d="M3989 2763 c-13 -16 -12 -17 4 -4 16 13 21 21 13 21 -2 0 -10 -8 -17
-17z"/>
<path d="M4215 2740 c-3 -5 -1 -10 4 -10 6 0 11 5 11 10 0 6 -2 10 -4 10 -3 0
-8 -4 -11 -10z"/>
<path d="M4159 2713 c-13 -16 -12 -17 4 -4 9 7 17 15 17 17 0 8 -8 3 -21 -13z"/>
<path d="M5095 2720 c-3 -5 -1 -10 4 -10 6 0 11 5 11 10 0 6 -2 10 -4 10 -3 0
-8 -4 -11 -10z"/>
<path d="M4150 2676 c7 -7 13 -7 20 0 6 6 3 10 -10 10 -13 0 -16 -4 -10 -10z"/>
<path d="M3775 2660 c3 -5 8 -10 11 -10 2 0 4 5 4 10 0 6 -5 10 -11 10 -5 0
-7 -4 -4 -10z"/>
<path d="M3810 2659 c0 -5 5 -7 10 -4 6 3 10 8 10 11 0 2 -4 4 -10 4 -5 0 -10
-5 -10 -11z"/>
<path d="M4146 2642 c-3 -5 1 -9 9 -9 8 0 15 4 15 9 0 4 -4 8 -9 8 -6 0 -12
-4 -15 -8z"/>
<path d="M3850 2620 c0 -5 5 -10 11 -10 5 0 7 5 4 10 -3 6 -8 10 -11 10 -2 0
-4 -4 -4 -10z"/>
<path d="M5455 2620 c-3 -5 -1 -10 4 -10 6 0 11 5 11 10 0 6 -2 10 -4 10 -3 0
-8 -4 -11 -10z"/>
<path d="M4075 2600 c-3 -5 -1 -10 4 -10 6 0 11 5 11 10 0 6 -2 10 -4 10 -3 0
-8 -4 -11 -10z"/>
<path d="M4110 2599 c0 -5 5 -7 10 -4 6 3 10 8 10 11 0 2 -4 4 -10 4 -5 0 -10
-5 -10 -11z"/>
<path d="M3770 2579 c0 -5 5 -7 10 -4 6 3 10 8 10 11 0 2 -4 4 -10 4 -5 0 -10
-5 -10 -11z"/>
<path d="M3850 2579 c0 -5 5 -7 10 -4 6 3 10 8 10 11 0 2 -4 4 -10 4 -5 0 -10
-5 -10 -11z"/>
<path d="M5455 2580 c3 -5 8 -10 11 -10 2 0 4 5 4 10 0 6 -5 10 -11 10 -5 0
-7 -4 -4 -10z"/>
<path d="M5530 2579 c0 -5 5 -7 10 -4 6 3 10 8 10 11 0 2 -4 4 -10 4 -5 0 -10
-5 -10 -11z"/>
<path d="M5610 2579 c0 -5 5 -7 10 -4 6 3 10 8 10 11 0 2 -4 4 -10 4 -5 0 -10
-5 -10 -11z"/>
</g>
</svg>
