<?xml version="1.0" encoding="UTF-8"?>
<svg id="Layer_2" data-name="Layer 2" xmlns="http://www.w3.org/2000/svg" viewBox="0 0 274.08 66.61">
  <defs>
    <style>
      .cls-1 {
        fill: #1a1a1c;
      }

      .cls-1, .cls-2, .cls-3, .cls-4, .cls-5 {
        stroke-width: 0px;
      }

      .cls-2 {
        fill: #c1a2f2;
      }

      .cls-3 {
        fill: #ff7676;
      }

      .cls-4 {
        fill: #ffe576;
      }

      .cls-5 {
        fill: #00e27c;
      }
    </style>
  </defs>
  <g id="Layer_1-2" data-name="Layer 1">
    <g>
      <g>
        <path class="cls-1" d="m35.72,53.28l-13.25-20.31-13.39,20.31H0l17.64-26.71L0,0h9.29l13.18,20.16L35.79,0h9.22l-17.79,26.57,17.64,26.71h-9.14Z"/>
        <path class="cls-1" d="m50.69,66.61V13.39h6.84v6.12h.14c3.38-4.82,8.5-7.2,14.19-7.2,11.88,0,20.67,9.22,20.67,21.53,0,11.23-8.71,20.45-20.16,20.45-6.05,0-11.45-2.45-14.04-6.77h-.14v19.08h-7.49Zm34.35-33.19c0-7.27-5.76-14.26-13.75-14.26-7.49,0-13.25,6.7-13.25,14.11s5.76,14.19,13.54,14.19,13.46-6.41,13.46-14.04Z"/>
        <path class="cls-1" d="m105.55,36.58c1.73,6.62,6.98,10.87,13.11,10.87,4.68,0,9.07-2.45,11.38-6.7h7.49c-3.1,8.21-10.58,13.54-19.15,13.54-11.23,0-20.31-9.94-20.31-20.59,0-12.6,9.5-21.39,20.09-21.39,11.74,0,20.67,9.07,20.67,20.52,0,1.22,0,2.38-.22,3.74h-33.05Zm25.78-5.76c-.58-6.77-6.55-11.67-12.96-11.67s-12.24,4.82-12.82,11.67h25.78Z"/>
        <path class="cls-1" d="m146.3,53.28V13.39h6.99v3.6h.14c1.8-2.66,4.9-4.39,10.15-4.68v7.7c-6.48.22-9.79,4.18-9.79,10.87v22.39h-7.49Z"/>
        <path class="cls-1" d="m171.79,53.28V20.23h-5.4v-6.84h5.4V0h7.49v13.39h6.55v6.84h-6.55v33.05h-7.49Z"/>
        <path class="cls-1" d="m206.57,23.98c-.36-2.88-2.02-4.82-5.11-4.82-2.88,0-4.68,1.94-4.68,4.25,0,3.38,3.46,4.39,7.42,5.62,5.62,1.73,10.8,5.11,10.8,12.53s-5.62,12.75-13.39,12.75c-7.2,0-14.11-4.9-14.11-14.11h7.49c.36,4.82,2.81,7.27,6.77,7.27,3.46,0,5.76-2.23,5.76-5.47,0-2.74-2.09-4.54-6.77-6.05-9.79-3.1-11.45-7.34-11.45-11.88,0-7.06,5.98-11.74,12.53-11.74s12.02,4.61,12.24,11.67h-7.49Z"/>
      </g>
      <g>
        <path class="cls-2" d="m224.58,39.26c-.19,0-.35-.07-.48-.21-.13-.14-.19-.28-.19-.42,0-.17.06-.33.18-.49l3.98-5.42.77,1.19-3.69,5.02c-.14.22-.34.32-.58.32Zm.07-12.73c.25,0,.45.1.59.31l8.35,11.25c.1.14.14.29.14.45,0,.22-.08.39-.23.52-.16.13-.32.2-.49.2-.25,0-.45-.1-.59-.31l-8.35-11.25c-.1-.13-.14-.28-.14-.43,0-.22.07-.39.22-.53.15-.14.32-.21.5-.21Zm8.42.02c.18,0,.34.07.48.2.14.13.21.28.21.45,0,.16-.05.31-.16.45l-3.96,5.35-.81-1.15,3.65-4.97c.17-.22.37-.32.59-.32Z"/>
        <path class="cls-4" d="m238.02,39.26c-.19,0-.35-.07-.48-.21-.13-.14-.19-.28-.19-.42,0-.17.06-.33.18-.49l3.98-5.42.77,1.19-3.69,5.02c-.14.22-.34.32-.58.32Zm.07-12.73c.25,0,.45.1.59.31l8.35,11.25c.1.14.14.29.14.45,0,.22-.08.39-.23.52-.16.13-.32.2-.49.2-.25,0-.45-.1-.59-.31l-8.35-11.25c-.1-.13-.14-.28-.14-.43,0-.22.07-.39.22-.53.15-.14.32-.21.5-.21Zm8.42.02c.18,0,.34.07.48.2.14.13.21.28.21.45,0,.16-.05.31-.16.45l-3.96,5.35-.81-1.15,3.65-4.97c.17-.22.37-.32.59-.32Z"/>
        <path class="cls-5" d="m251.46,39.26c-.19,0-.35-.07-.48-.21-.13-.14-.19-.28-.19-.42,0-.17.06-.33.18-.49l3.98-5.42.77,1.19-3.69,5.02c-.14.22-.34.32-.58.32Zm.07-12.73c.25,0,.45.1.59.31l8.35,11.25c.1.14.14.29.14.45,0,.22-.08.39-.23.52-.16.13-.32.2-.49.2-.25,0-.45-.1-.59-.31l-8.35-11.25c-.1-.13-.14-.28-.14-.43,0-.22.07-.39.22-.53.15-.14.32-.21.5-.21Zm8.42.02c.18,0,.34.07.48.2.14.13.21.28.21.45,0,.16-.05.31-.16.45l-3.96,5.35-.81-1.15,3.65-4.97c.17-.22.37-.32.59-.32Z"/>
        <path class="cls-3" d="m264.9,39.26c-.19,0-.35-.07-.48-.21-.13-.14-.19-.28-.19-.42,0-.17.06-.33.18-.49l3.98-5.42.77,1.19-3.69,5.02c-.14.22-.34.32-.58.32Zm.07-12.73c.25,0,.45.1.59.31l8.35,11.25c.1.14.14.29.14.45,0,.22-.08.39-.23.52s-.32.2-.49.2c-.25,0-.45-.1-.59-.31l-8.35-11.25c-.1-.13-.14-.28-.14-.43,0-.22.08-.39.22-.53.15-.14.32-.21.5-.21Zm8.42.02c.18,0,.34.07.48.2.14.13.21.28.21.45,0,.16-.05.31-.16.45l-3.96,5.35-.81-1.15,3.65-4.97c.17-.22.37-.32.59-.32Z"/>
      </g>
    </g>
  </g>
</svg>